<svg width="16" height="16" viewBox="0 0 16 16" fill="#009a5e" xmlns="http://www.w3.org/2000/svg">
<path d="M13.3333 1.33334C13.5101 1.33334 13.6797 1.40358 13.8047 1.52861C13.9298 1.65363 14 1.8232 14 2.00001V4.50468L12.6667 5.83801V2.66668H3.33333V13.3333H12.6667V11.4947L14 10.1613V14C14 14.1768 13.9298 14.3464 13.8047 14.4714C13.6797 14.5964 13.5101 14.6667 13.3333 14.6667H2.66667C2.48986 14.6667 2.32029 14.5964 2.19526 14.4714C2.07024 14.3464 2 14.1768 2 14V2.00001C2 1.8232 2.07024 1.65363 2.19526 1.52861C2.32029 1.40358 2.48986 1.33334 2.66667 1.33334H13.3333ZM14.5187 5.87201L15.4613 6.81468L10.276 12L9.332 11.9987L9.33333 11.0573L14.5187 5.87201ZM8.66667 8.00001V9.33334H5.33333V8.00001H8.66667ZM10.6667 5.33334V6.66668H5.33333V5.33334H10.6667Z" />
</svg>
