<svg width="16" height="16" viewBox="0 0 14 14" fill="none" xmlns="http://www.w3.org/2000/svg">
<path d="M12.4151 4.82768L8.94385 4.32319L7.39209 1.17732C7.34971 1.09119 7.27998 1.02146 7.19385 0.979082C6.97783 0.872442 6.71533 0.961309 6.60732 1.17732L5.05556 4.32319L1.58428 4.82768C1.48857 4.84135 1.40107 4.88647 1.33408 4.95482C1.25309 5.03807 1.20846 5.15006 1.21 5.26619C1.21154 5.38232 1.25912 5.49309 1.34228 5.57415L3.85381 8.02276L3.26045 11.4803C3.24653 11.5608 3.25543 11.6435 3.28614 11.7191C3.31685 11.7948 3.36813 11.8603 3.43417 11.9082C3.50022 11.9562 3.57838 11.9847 3.6598 11.9905C3.74122 11.9963 3.82264 11.9792 3.89482 11.9411L6.99971 10.3087L10.1046 11.9411C10.1894 11.9862 10.2878 12.0012 10.3821 11.9848C10.62 11.9438 10.78 11.7182 10.739 11.4803L10.1456 8.02276L12.6571 5.57415C12.7255 5.50716 12.7706 5.41966 12.7843 5.32396C12.8212 5.08471 12.6544 4.86322 12.4151 4.82768V4.82768ZM9.08877 7.67824L9.58232 10.5534L6.99971 9.19717L4.41709 10.5548L4.91064 7.6796L2.82158 5.64251L5.70908 5.22279L6.99971 2.60739L8.29033 5.22279L11.1778 5.64251L9.08877 7.67824Z" fill="black"/>
</svg>
