<svg width="16" height="16" viewBox="0 0 16 16" fill="none" xmlns="http://www.w3.org/2000/svg">
<path d="M2 4.5C2 3.83696 2.26339 3.20107 2.73223 2.73223C3.20107 2.26339 3.83696 2 4.5 2H11.5C12.163 2 12.7989 2.26339 13.2678 2.73223C13.7366 3.20107 14 3.83696 14 4.5V11.5C14 12.163 13.7366 12.7989 13.2678 13.2678C12.7989 13.7366 12.163 14 11.5 14H4.5C3.83696 14 3.20107 13.7366 2.73223 13.2678C2.26339 12.7989 2 12.163 2 11.5V4.5ZM13 8V4.5C13 4.10218 12.842 3.72064 12.5607 3.43934C12.2794 3.15804 11.8978 3 11.5 3H4.5C4.10218 3 3.72064 3.15804 3.43934 3.43934C3.15804 3.72064 3 4.10218 3 4.5V8H5.5C5.63261 8 5.75979 8.05268 5.85355 8.14645C5.94732 8.24021 6 8.36739 6 8.5C6 8.552 6.008 8.662 6.032 8.808C6.073 9.055 6.147 9.301 6.26 9.526C6.568 10.144 7.103 10.5 8 10.5C8.897 10.5 9.432 10.144 9.74 9.526C9.853 9.301 9.927 9.056 9.968 8.808C9.992 8.662 10 8.552 10 8.5C9.99996 8.38297 10.041 8.26964 10.1159 8.17974C10.1908 8.08984 10.2949 8.02907 10.41 8.008L10.5 8H13Z" fill="#595959"/>
</svg>
