<svg width="100" height="104" viewBox="0 0 100 104" fill="none" xmlns="http://www.w3.org/2000/svg">
<g clip-path="url(#clip0)">
<path d="M70.9626 57.6399H20.0464C19.2374 57.6399 18.5818 58.2958 18.5818 59.1045C18.5818 59.9133 19.2376 60.5692 20.0464 60.5692H70.9628C71.7718 60.5692 72.4275 59.9133 72.4275 59.1045C72.4275 58.2958 71.7716 57.6399 70.9626 57.6399Z" fill="#009A5E"/>
<path d="M70.9626 67.0784H20.0464C19.2374 67.0784 18.5818 67.7342 18.5818 68.543C18.5818 69.3518 19.2376 70.0077 20.0464 70.0077H70.9628C71.7718 70.0077 72.4275 69.3518 72.4275 68.543C72.4275 67.7342 71.7716 67.0784 70.9626 67.0784Z" fill="#009A5E"/>
<path d="M70.9626 76.5168H20.0464C19.2374 76.5168 18.5818 77.1727 18.5818 77.9815C18.5818 78.7903 19.2376 79.4461 20.0464 79.4461H70.9628C71.7718 79.4461 72.4275 78.7903 72.4275 77.9815C72.4275 77.1727 71.7716 76.5168 70.9626 76.5168Z" fill="#009A5E"/>
<path d="M70.9626 85.9553H20.0464C19.2374 85.9553 18.5818 86.6112 18.5818 87.42C18.5818 88.2288 19.2376 88.8846 20.0464 88.8846H70.9628C71.7718 88.8846 72.4275 88.2288 72.4275 87.42C72.4275 86.6112 71.7716 85.9553 70.9626 85.9553Z" fill="#009A5E"/>
<path d="M70.9625 38.3168H52.253C51.444 38.3168 50.7883 38.9726 50.7883 39.7814C50.7883 40.5902 51.4442 41.2461 52.253 41.2461H70.9625C71.7715 41.2461 72.4272 40.5902 72.4272 39.7814C72.4272 38.9726 71.7715 38.3168 70.9625 38.3168Z" fill="#009A5E"/>
<path d="M70.9625 30.6187H52.253C51.444 30.6187 50.7883 31.2745 50.7883 32.0833C50.7883 32.8921 51.4442 33.548 52.253 33.548H70.9625C71.7715 33.548 72.4272 32.8921 72.4272 32.0833C72.4272 31.2745 71.7715 30.6187 70.9625 30.6187Z" fill="#009A5E"/>
<path d="M81.1073 85.4609C81.9163 85.4609 82.572 84.8051 82.572 83.9963V18.3062C82.572 15.1301 79.988 12.5461 76.8118 12.5461H74.0259V9.76016C74.0261 6.58398 71.4421 4 68.2659 4H7.18838C4.01221 4 1.42822 6.58398 1.42822 9.76016V89.6937C1.42822 92.8699 4.01221 95.4539 7.18838 95.4539H9.97412V98.2396C9.97412 101.416 12.5581 104 15.7343 104H76.8116C79.9878 104 82.5718 101.416 82.5718 98.2396V90.8438C82.5718 90.0348 81.9159 89.3791 81.1071 89.3791C80.2983 89.3791 79.6425 90.035 79.6425 90.8438V98.2398C79.6425 99.8008 78.3726 101.071 76.8118 101.071H15.7345C14.1735 101.071 12.9038 99.8008 12.9038 98.2398V18.3062C12.9038 16.7453 14.1737 15.4756 15.7345 15.4756H76.8118C78.3728 15.4756 79.6425 16.7455 79.6425 18.3062V83.9963C79.6425 84.8051 80.2983 85.4609 81.1073 85.4609ZM9.97412 18.3062V92.5246H7.18838C5.62744 92.5246 4.35772 91.2547 4.35772 89.6939V9.76016C4.35772 8.19922 5.62764 6.92949 7.18838 6.92949H68.2659C69.8269 6.92949 71.0966 8.19941 71.0966 9.76016V12.5459H15.7345C12.5583 12.5461 9.97412 15.1301 9.97412 18.3062Z" fill="#009A5E"/>
<rect x="19.9963" y="23.3633" width="23.1439" height="25.3022" rx="5.5" stroke="#009A5E" stroke-width="3"/>
<path d="M80.448 4.08019C80.6661 2.2419 83.3339 2.2419 83.552 4.08019C83.6371 4.79743 84.2026 5.36292 84.9198 5.44802C86.7581 5.66614 86.7581 8.33386 84.9198 8.55198C84.2026 8.63708 83.6371 9.20257 83.552 9.91981C83.3339 11.7581 80.6661 11.7581 80.448 9.91981C80.3629 9.20257 79.7974 8.63708 79.0802 8.55198C77.2419 8.33386 77.2419 5.66614 79.0802 5.44802C79.7974 5.36292 80.3629 4.79743 80.448 4.08019Z" fill="#009A5E"/>
<path d="M90.5139 9.73878C90.7931 7.38631 94.2069 7.38631 94.4861 9.73878L94.5948 10.6548C94.7037 11.5727 95.4273 12.2963 96.3452 12.4052L97.2612 12.5139C99.6137 12.7931 99.6137 16.2069 97.2612 16.4861L96.3452 16.5948C95.4273 16.7037 94.7037 17.4273 94.5948 18.3452L94.4861 19.2612C94.2069 21.6137 90.7931 21.6137 90.5139 19.2612L90.4052 18.3452C90.2963 17.4273 89.5727 16.7037 88.6548 16.5948L87.7388 16.4861C85.3863 16.2069 85.3863 12.7931 87.7388 12.5139L88.6548 12.4052C89.5727 12.2963 90.2963 11.5727 90.4052 10.6548L90.5139 9.73878Z" fill="#009A5E"/>
</g>
<defs>
<clipPath id="clip0">
<rect width="100" height="104" fill="white"/>
</clipPath>
</defs>
</svg>
