<svg width="97" height="97" viewBox="0 0 97 97" fill="none" xmlns="http://www.w3.org/2000/svg">
<g clip-path="url(#clip0)">
<path d="M86.434 79.0171C87.2187 79.0171 87.8547 78.3809 87.8547 77.5964V13.8771C87.8547 10.7962 85.3482 8.28971 82.2673 8.28971H79.565V5.58735C79.5652 2.50647 77.0587 0 73.9778 0H14.7326C11.6517 0 9.14526 2.50647 9.14526 5.58735V83.1229C9.14526 86.2038 11.6517 88.7103 14.7326 88.7103H17.4348V91.4125C17.4348 94.4933 19.9412 96.9998 23.0221 96.9998H82.2671C85.348 96.9998 87.8545 94.4933 87.8545 91.4125V84.2384C87.8545 83.4537 87.2183 82.8177 86.4338 82.8177C85.6493 82.8177 85.0131 83.4539 85.0131 84.2384V91.4127C85.0131 92.9268 83.7813 94.1584 82.2673 94.1584H23.0223C21.5082 94.1584 20.2766 92.9268 20.2766 91.4127V13.8771C20.2766 12.363 21.5084 11.1313 23.0223 11.1313H82.2673C83.7814 11.1313 85.0131 12.3631 85.0131 13.8771V77.5964C85.0131 78.3809 85.6493 79.0171 86.434 79.0171ZM17.4348 13.8771V85.8689H14.7326C13.2185 85.8689 11.9869 84.637 11.9869 83.1231V5.58735C11.9869 4.07324 13.2187 2.84161 14.7326 2.84161H73.9778C75.4919 2.84161 76.7236 4.07343 76.7236 5.58735V8.28952H23.0223C19.9414 8.28971 17.4348 10.7962 17.4348 13.8771Z" fill="#009A5E"/>
<rect x="31.4028" y="41.8705" width="11.8633" height="2.79136" rx="1.39568" fill="#009A5E"/>
<rect x="45.3596" y="41.8705" width="24.4245" height="2.79136" rx="1.39568" fill="#009A5E"/>
<rect x="57.9209" y="50.9425" width="11.8633" height="2.79137" rx="1.39569" fill="#009A5E"/>
<rect x="31.4028" y="50.9425" width="24.4245" height="2.79137" rx="1.39569" fill="#009A5E"/>
<rect x="56.5251" y="60.0144" width="13.259" height="2.79138" rx="1.39569" fill="#009A5E"/>
</g>
<defs>
<clipPath id="clip0">
<rect width="97" height="97" fill="white"/>
</clipPath>
</defs>
</svg>
